# xmcd
#
# Track frame offsets:
#	150
#	14198
#	31743
#	46602
#	64010
#	76687
#	89426
#	103646
#	119630
#	132209
#	142523
#	152568
#
# Disc length: 2217 seconds
#
# Revision: 1
# Processed by: cddbd v1.5.2PL0 Copyright (c) Steve Scherf et al.
# Submitted via: audiograbber 1.83.01
#
DISCID=8c08a70c
DTITLE=Vern Gosdin - There Is A Season
DYEAR=1992
DGENRE=Country
TTITLE0=Turn, Turn, Turn
TTITLE1=Love Me Right To The End
TTITLE2=How Can I Believe In You When You'll
TTITLE3=Slow Healing Heart
TTITLE4=I Can Tell By The Way You Dance
TTITLE5=What Would Your Memories Do
TTITLE6=Slow Burnin' Memory
TTITLE7=Dead From The Heart On Down
TTITLE8=Stone Cold Heart
TTITLE9=I've Got A Heart Full Of You
TTITLE10=I've Got A Heart Full Of You1
TTITLE11=You Never Crossed My Mind
EXTD=
EXTT0=
EXTT1=
EXTT2=
EXTT3=
EXTT4=
EXTT5=
EXTT6=
EXTT7=
EXTT8=
EXTT9=
EXTT10=
EXTT11=
PLAYORDER=
